<svg width="230" height="48" fill="none" xmlns="http://www.w3.org/2000/svg"><path d="M.936 37V1.96h10.848L19.8 21.64h.912l7.92-19.68h11.04V37h-7.776V9.976l-8.16 19.92h-7.488L8.136 10.168V37h-7.2zm50.962-.576l-8.064-25.728h7.728l5.808 19.728h.96l4.8-19.728h7.296l-7.344 28.416c-.544 2.048-1.28 3.68-2.208 4.896-.896 1.216-2.112 2.08-3.648 2.592-1.504.544-3.408.816-5.712.816H46.81v-6.528h5.472c1.216 0 2.16-.24 2.832-.72.704-.48 1.216-1.344 1.536-2.592l.24-1.152h-4.992zM74.905 37V1.96h21.024v6.528H82.777v7.872h12.576v6.528H82.777V37h-7.872zm30.37-28.896c-1.44 0-2.512-.368-3.216-1.104-.672-.768-1.008-1.728-1.008-2.88 0-1.184.336-2.144 1.008-2.88.704-.768 1.776-1.152 3.216-1.152 1.44 0 2.496.384 3.168 1.152.704.736 1.056 1.696 1.056 2.88 0 1.152-.352 2.112-1.056 2.88-.672.736-1.728 1.104-3.168 1.104zM102.299 37V16.36h-3.504v-5.664h11.184V37h-7.68zm14.783 0V10.696h6.096v6.72c1.056-5.024 4.016-7.536 8.88-7.536h.336c3.04 0 5.376 1.008 7.008 3.024 1.632 1.984 2.448 5.008 2.448 9.072V37h-7.68V21.544c0-1.408-.416-2.56-1.248-3.456-.832-.896-1.952-1.344-3.36-1.344-1.44 0-2.608.464-3.504 1.392-.864.896-1.296 2.08-1.296 3.552V37h-7.68zm38.801.672c-2.848 0-5.152-.736-6.912-2.208-1.728-1.472-2.592-3.552-2.592-6.24 0-1.92.496-3.488 1.488-4.704.992-1.248 2.384-2.16 4.176-2.736 1.792-.608 3.856-.912 6.192-.912h4.752v-.096c0-2.688-1.344-4.032-4.032-4.032-.704 0-1.632.032-2.784.096-1.152.032-2.352.08-3.6.144-1.216.032-2.304.08-3.264.144v-6.48a91.65 91.65 0 014.128-.24 77.255 77.255 0 014.512-.144c4.032 0 7.104.864 9.216 2.592 2.144 1.696 3.216 4.368 3.216 8.016V37h-6.096v-4.944c-.576 1.824-1.568 3.216-2.976 4.176s-3.216 1.44-5.424 1.44zm2.304-5.328c1.248 0 2.336-.352 3.264-1.056.928-.704 1.44-2.048 1.536-4.032v-2.112h-4.8c-1.344 0-2.384.336-3.12 1.008-.704.672-1.056 1.552-1.056 2.64 0 1.056.352 1.92 1.056 2.592.736.64 1.776.96 3.12.96zM176.895 37V10.696h6.096v6.72c1.056-5.024 4.016-7.536 8.88-7.536h.336c3.04 0 5.376 1.008 7.008 3.024 1.632 1.984 2.448 5.008 2.448 9.072V37h-7.68V21.544c0-1.408-.416-2.56-1.248-3.456-.832-.896-1.952-1.344-3.36-1.344-1.44 0-2.608.464-3.504 1.392-.864.896-1.296 2.08-1.296 3.552V37h-7.68zm41.296.816c-3.744 0-6.672-.768-8.784-2.304-2.112-1.536-3.232-3.696-3.36-6.48h6.816c.096.832.592 1.584 1.488 2.256.896.64 2.224.96 3.984.96 1.312 0 2.416-.224 3.312-.672.896-.448 1.344-1.12 1.344-2.016 0-.768-.336-1.376-1.008-1.824-.672-.48-1.872-.816-3.6-1.008l-2.064-.192c-3.168-.352-5.552-1.232-7.152-2.64-1.568-1.408-2.352-3.248-2.352-5.52 0-1.856.464-3.408 1.392-4.656.96-1.248 2.256-2.192 3.888-2.832 1.632-.64 3.504-.96 5.616-.96 3.392 0 6.112.752 8.16 2.256 2.08 1.472 3.184 3.616 3.312 6.432h-6.816c-.128-.832-.592-1.552-1.392-2.16-.768-.608-1.888-.912-3.36-.912-1.184 0-2.128.224-2.832.672-.704.448-1.056 1.056-1.056 1.824 0 .736.304 1.296.912 1.68.608.384 1.6.656 2.976.816l2.064.192c3.2.352 5.696 1.264 7.488 2.736 1.824 1.44 2.736 3.36 2.736 5.76 0 2.656-1.056 4.752-3.168 6.288-2.112 1.536-4.96 2.304-8.544 2.304z" fill="url(#paint0_linear)"/><defs><linearGradient id="paint0_linear" x1="232" y1="-9" x2="61.716" y2="130.179" gradientUnits="userSpaceOnUse"><stop stop-color="#82C041"/><stop offset="1" stop-color="#40CBF6"/></linearGradient></defs></svg>